<?xml version="1.0" encoding="UTF-8"?>
<!DOCTYPE svg PUBLIC "-//W3C//DTD SVG 1.1//EN" "http://www.w3.org/Graphics/SVG/1.1/DTD/svg11.dtd">
<svg xmlns="http://www.w3.org/2000/svg" version="1.1" width="894px" height="894px" style="shape-rendering:geometricPrecision; text-rendering:geometricPrecision; image-rendering:optimizeQuality; fill-rule:evenodd; clip-rule:evenodd" xmlns:xlink="http://www.w3.org/1999/xlink">
<g><path style="opacity:0.654" fill="#0c0707" d="M 447.5,49.5 C 589.799,50.5628 702.965,107.896 787,221.5C 807.086,250.669 823.253,282.002 835.5,315.5C 839.69,319.573 843.69,323.073 847.5,326C 844.596,326.959 841.929,327.459 839.5,327.5C 874.672,442.785 862.505,552.785 803,657.5C 746.527,749.276 666.36,810.11 562.5,840C 440.672,870.253 328.005,850.253 224.5,780C 122.76,704.733 66.5936,603.567 56,476.5C 51.1816,334.336 104.015,219.17 214.5,131C 283.666,79.8873 361.333,52.7206 447.5,49.5 Z"/></g>
<g><path style="opacity:1" fill="#d94533" d="M 447.5,53.5 C 459.345,53.1717 471.012,53.5051 482.5,54.5C 479.167,54.5 475.833,54.5 472.5,54.5C 472.254,58.1506 472.254,61.6506 472.5,65C 471.333,65.5 470.5,66.3333 470,67.5C 469.135,72.6255 467.802,77.6255 466,82.5C 465.667,81.1667 465.333,79.8333 465,78.5C 464.333,77.1667 463.667,77.1667 463,78.5C 460.538,88.3855 457.372,98.0521 453.5,107.5C 453.709,108.086 454.043,108.586 454.5,109C 451.292,118.528 446.792,127.361 441,135.5C 437.827,142.864 435.493,150.53 434,158.5C 431,162.167 428,165.833 425,169.5C 424.706,172.655 424.039,175.988 423,179.5C 421,182.167 419,184.833 417,187.5C 412.874,196.417 408.207,205.083 403,213.5C 402.215,218.876 401.215,224.209 400,229.5C 396.666,234.182 393.332,238.848 390,243.5C 389.139,249.278 387.806,254.944 386,260.5C 379.173,269.484 372.84,278.817 367,288.5C 366.143,292.596 364.976,296.596 363.5,300.5C 357.995,306.01 353.661,312.343 350.5,319.5C 350.957,320.298 351.624,320.631 352.5,320.5C 337.032,341.442 327.032,364.775 322.5,390.5C 310.888,393.802 299.554,397.968 288.5,403C 270.145,411.512 251.812,420.012 233.5,428.5C 232.427,427.749 232.26,426.749 233,425.5C 242.952,417.182 252.285,408.182 261,398.5C 271.98,385.914 282.98,373.248 294,360.5C 309.818,338.209 325.151,315.543 340,292.5C 346.936,280.295 353.602,267.961 360,255.5C 365.236,241.692 371.57,228.359 379,215.5C 393.509,182.813 408.842,150.48 425,118.5C 427.76,108.976 431.094,99.6426 435,90.5C 437.491,79.5345 439.825,68.5345 442,57.5C 443.685,55.8953 445.518,54.562 447.5,53.5 Z"/></g>
<g><path style="opacity:1" fill="#db4d3b" d="M 440.5,53.5 C 437.456,55.0114 434.122,55.678 430.5,55.5C 426.659,76.0715 420.826,96.4048 413,116.5C 388.315,166.203 364.982,216.536 343,267.5C 328.401,297.029 310.068,324.029 288,348.5C 258.223,387.293 223.723,421.126 184.5,450C 182.587,451.791 180.92,453.791 179.5,456C 180.094,456.464 180.761,456.631 181.5,456.5C 142.329,478.913 103.996,502.58 66.5,527.5C 64.7635,522.089 63.7635,516.422 63.5,510.5C 118.681,481.816 169.347,446.65 215.5,405C 219.337,403.827 222.671,401.827 225.5,399C 243.643,380.522 261.477,361.688 279,342.5C 291.056,326.11 302.723,309.443 314,292.5C 328.066,270.035 339.733,246.368 349,221.5C 354.543,211.471 358.543,201.138 361,190.5C 376.796,158.402 391.796,126.069 406,93.5C 410.102,81.1572 412.602,68.4905 413.5,55.5C 422.459,54.6001 431.459,53.9334 440.5,53.5 Z"/></g>
<g><path style="opacity:1" fill="#da4836" d="M 440.5,53.5 C 442.833,53.5 445.167,53.5 447.5,53.5C 445.518,54.562 443.685,55.8953 442,57.5C 439.825,68.5345 437.491,79.5345 435,90.5C 431.094,99.6426 427.76,108.976 425,118.5C 408.842,150.48 393.509,182.813 379,215.5C 371.57,228.359 365.236,241.692 360,255.5C 353.602,267.961 346.936,280.295 340,292.5C 325.151,315.543 309.818,338.209 294,360.5C 282.98,373.248 271.98,385.914 261,398.5C 252.285,408.182 242.952,417.182 233,425.5C 232.26,426.749 232.427,427.749 233.5,428.5C 216.174,437.83 198.841,447.163 181.5,456.5C 180.761,456.631 180.094,456.464 179.5,456C 180.92,453.791 182.587,451.791 184.5,450C 223.723,421.126 258.223,387.293 288,348.5C 310.068,324.029 328.401,297.029 343,267.5C 364.982,216.536 388.315,166.203 413,116.5C 420.826,96.4048 426.659,76.0715 430.5,55.5C 434.122,55.678 437.456,55.0114 440.5,53.5 Z"/></g>
<g><path style="opacity:1" fill="#d8412f" d="M 482.5,54.5 C 601.136,63.7725 697.636,114.439 772,206.5C 793.928,235.007 811.761,266.007 825.5,299.5C 814.833,300.167 804.167,300.833 793.5,301.5C 788.5,301.5 783.5,301.5 778.5,301.5C 773.92,294.897 769.42,287.563 765,279.5C 750.182,242.173 728.182,209.839 699,182.5C 705.841,201.202 710.508,220.535 713,240.5C 716.216,268.019 708.382,291.686 689.5,311.5C 663.81,314.86 638.144,318.36 612.5,322C 571.061,270.398 517.394,249.398 451.5,259C 411.106,267.851 378.106,288.351 352.5,320.5C 351.624,320.631 350.957,320.298 350.5,319.5C 353.661,312.343 357.995,306.01 363.5,300.5C 364.976,296.596 366.143,292.596 367,288.5C 372.84,278.817 379.173,269.484 386,260.5C 387.806,254.944 389.139,249.278 390,243.5C 393.332,238.848 396.666,234.182 400,229.5C 401.215,224.209 402.215,218.876 403,213.5C 408.207,205.083 412.874,196.417 417,187.5C 419,184.833 421,182.167 423,179.5C 424.039,175.988 424.706,172.655 425,169.5C 428,165.833 431,162.167 434,158.5C 435.493,150.53 437.827,142.864 441,135.5C 446.792,127.361 451.292,118.528 454.5,109C 454.043,108.586 453.709,108.086 453.5,107.5C 457.372,98.0521 460.538,88.3855 463,78.5C 463.667,77.1667 464.333,77.1667 465,78.5C 465.333,79.8333 465.667,81.1667 466,82.5C 467.802,77.6255 469.135,72.6255 470,67.5C 470.5,66.3333 471.333,65.5 472.5,65C 472.254,61.6506 472.254,58.1506 472.5,54.5C 475.833,54.5 479.167,54.5 482.5,54.5 Z"/></g>
<g><path style="opacity:1" fill="#dd5341" d="M 413.5,55.5 C 412.602,68.4905 410.102,81.1572 406,93.5C 391.796,126.069 376.796,158.402 361,190.5C 358.543,201.138 354.543,211.471 349,221.5C 339.733,246.368 328.066,270.035 314,292.5C 302.723,309.443 291.056,326.11 279,342.5C 261.477,361.688 243.643,380.522 225.5,399C 222.671,401.827 219.337,403.827 215.5,405C 169.347,446.65 118.681,481.816 63.5,510.5C 62.3721,505.938 61.7054,501.272 61.5,496.5C 61.6719,487.19 62.1719,487.19 63,496.5C 119.845,465.684 172.345,428.518 220.5,385C 222.275,383.561 224.275,382.561 226.5,382C 231.737,376.093 237.57,370.926 244,366.5C 251.321,357.18 259.321,348.514 268,340.5C 272.971,333.521 277.971,326.521 283,319.5C 290.019,313.801 295.352,306.801 299,298.5C 300,297.833 301,297.167 302,296.5C 306.546,287.082 311.879,278.082 318,269.5C 324.756,253.317 332.089,237.317 340,221.5C 340.236,219.236 340.736,217.069 341.5,215C 341.167,214.667 340.833,214.333 340.5,214C 345.043,201.612 349.71,189.279 354.5,177C 354.043,176.586 353.709,176.086 353.5,175.5C 367.392,149.047 380.226,122.047 392,94.5C 396.575,82.5369 399.408,70.2036 400.5,57.5C 402.735,57.7947 404.735,57.4614 406.5,56.5C 408.806,56.0074 411.139,55.6741 413.5,55.5 Z"/></g>
<g><path style="opacity:1" fill="#df5a47" d="M 406.5,56.5 C 404.735,57.4614 402.735,57.7947 400.5,57.5C 399.408,70.2036 396.575,82.5369 392,94.5C 380.226,122.047 367.392,149.047 353.5,175.5C 353.709,176.086 354.043,176.586 354.5,177C 349.71,189.279 345.043,201.612 340.5,214C 340.833,214.333 341.167,214.667 341.5,215C 340.736,217.069 340.236,219.236 340,221.5C 332.089,237.317 324.756,253.317 318,269.5C 311.879,278.082 306.546,287.082 302,296.5C 301,297.167 300,297.833 299,298.5C 295.352,306.801 290.019,313.801 283,319.5C 277.971,326.521 272.971,333.521 268,340.5C 259.321,348.514 251.321,357.18 244,366.5C 237.57,370.926 231.737,376.093 226.5,382C 224.275,382.561 222.275,383.561 220.5,385C 172.345,428.518 119.845,465.684 63,496.5C 62.1719,487.19 61.6719,487.19 61.5,496.5C 60.5233,493.713 60.19,490.713 60.5,487.5C 105.069,462.435 147.069,433.602 186.5,401C 190.112,399.861 193.446,398.194 196.5,396C 201.732,391.556 206.732,386.89 211.5,382C 213.246,381.529 214.913,380.862 216.5,380C 223.299,373.186 230.633,367.186 238.5,362C 275.852,324.483 305.686,281.65 328,233.5C 334.241,211.515 341.241,189.848 349,168.5C 349.333,166.167 349.667,163.833 350,161.5C 359.667,141.5 369.333,121.5 379,101.5C 384.596,87.429 389.096,73.0957 392.5,58.5C 397.012,57.0187 401.678,56.352 406.5,56.5 Z"/></g>
<g><path style="opacity:1" fill="#e1604e" d="M 392.5,58.5 C 389.096,73.0957 384.596,87.429 379,101.5C 369.333,121.5 359.667,141.5 350,161.5C 349.667,163.833 349.333,166.167 349,168.5C 341.241,189.848 334.241,211.515 328,233.5C 305.686,281.65 275.852,324.483 238.5,362C 230.633,367.186 223.299,373.186 216.5,380C 214.913,380.862 213.246,381.529 211.5,382C 206.732,386.89 201.732,391.556 196.5,396C 193.446,398.194 190.112,399.861 186.5,401C 147.069,433.602 105.069,462.435 60.5,487.5C 60.5,486.167 60.5,484.833 60.5,483.5C 59.9616,479.643 60.9616,476.309 63.5,473.5C 101.224,452.419 136.891,428.919 170.5,403C 171.257,401.488 172.257,400.154 173.5,399C 239.39,361.096 287.89,307.263 319,237.5C 326.729,218.025 332.396,198.358 336,178.5C 338.876,171.275 341.543,163.942 344,156.5C 344.743,154.559 344.576,152.726 343.5,151C 354.712,129.577 365.378,107.911 375.5,86C 377.72,77.8388 379.887,69.6721 382,61.5C 383.302,60.9152 384.469,60.2485 385.5,59.5C 387.717,58.6314 390.05,58.298 392.5,58.5 Z"/></g>
<g><path style="opacity:1" fill="#e26654" d="M 385.5,59.5 C 384.469,60.2485 383.302,60.9152 382,61.5C 379.887,69.6721 377.72,77.8388 375.5,86C 365.378,107.911 354.712,129.577 343.5,151C 344.576,152.726 344.743,154.559 344,156.5C 341.543,163.942 338.876,171.275 336,178.5C 332.396,198.358 326.729,218.025 319,237.5C 287.89,307.263 239.39,361.096 173.5,399C 172.257,400.154 171.257,401.488 170.5,403C 136.891,428.919 101.224,452.419 63.5,473.5C 60.9616,476.309 59.9616,479.643 60.5,483.5C 59.5128,478.695 59.1795,473.695 59.5,468.5C 59.5,467.5 59.5,466.5 59.5,465.5C 97.05,444.896 132.383,421.063 165.5,394C 169.653,392.529 173.32,390.196 176.5,387C 202.311,374.57 225.478,358.07 246,337.5C 275.645,306.486 298.978,271.153 316,231.5C 324.178,208.121 329.844,184.121 333,159.5C 334.82,153.044 336.82,146.71 339,140.5C 346.368,125.814 353.701,111.147 361,96.5C 365.661,86.185 369.327,75.5184 372,64.5C 372.985,63.1859 374.152,62.1859 375.5,61.5C 378.728,60.4544 382.061,59.7878 385.5,59.5 Z"/></g>
<g><path style="opacity:1" fill="#e46c5a" d="M 375.5,61.5 C 374.152,62.1859 372.985,63.1859 372,64.5C 369.327,75.5184 365.661,86.185 361,96.5C 353.701,111.147 346.368,125.814 339,140.5C 336.82,146.71 334.82,153.044 333,159.5C 329.844,184.121 324.178,208.121 316,231.5C 298.978,271.153 275.645,306.486 246,337.5C 225.478,358.07 202.311,374.57 176.5,387C 173.32,390.196 169.653,392.529 165.5,394C 132.383,421.063 97.05,444.896 59.5,465.5C 59.335,462.15 59.5017,458.817 60,455.5C 60.4652,454.069 61.2986,452.903 62.5,452C 95.5564,433.143 126.89,411.81 156.5,388C 162.193,384.955 167.86,381.955 173.5,379C 178.992,377.265 184.325,375.265 189.5,373C 195.012,368.927 201.012,365.594 207.5,363C 230.555,347.613 250.055,328.447 266,305.5C 289.815,277.549 307.148,245.882 318,210.5C 323.294,191.151 325.794,171.818 325.5,152.5C 326.38,150.571 327.38,148.737 328.5,147C 327.971,143.345 328.971,140.011 331.5,137C 330.483,135.951 330.316,134.784 331,133.5C 343.019,112.159 353.185,89.992 361.5,67C 360.944,66.6174 360.611,66.1174 360.5,65.5C 365.278,63.7205 370.278,62.3872 375.5,61.5 Z"/></g>
<g><path style="opacity:1" fill="#e67260" d="M 360.5,65.5 C 360.611,66.1174 360.944,66.6174 361.5,67C 353.185,89.992 343.019,112.159 331,133.5C 330.316,134.784 330.483,135.951 331.5,137C 328.971,140.011 327.971,143.345 328.5,147C 327.38,148.737 326.38,150.571 325.5,152.5C 325.794,171.818 323.294,191.151 318,210.5C 307.148,245.882 289.815,277.549 266,305.5C 250.055,328.447 230.555,347.613 207.5,363C 201.012,365.594 195.012,368.927 189.5,373C 184.325,375.265 178.992,377.265 173.5,379C 167.86,381.955 162.193,384.955 156.5,388C 126.89,411.81 95.5564,433.143 62.5,452C 61.2986,452.903 60.4652,454.069 60,455.5C 59.5017,458.817 59.335,462.15 59.5,465.5C 59.5,466.5 59.5,467.5 59.5,468.5C 58.5062,459.014 58.1729,449.348 58.5,439.5C 59.2679,440.263 59.7679,441.263 60,442.5C 60.3095,441.234 60.8095,440.067 61.5,439C 91.3847,422.231 119.718,403.231 146.5,382C 151.685,381.837 155.685,379.503 158.5,375C 186.784,370.114 211.451,357.781 232.5,338C 265.812,305.984 291.312,268.484 309,225.5C 317.97,198.471 320.803,171.305 317.5,144C 320.132,141.934 320.799,139.434 319.5,136.5C 320.222,134.056 321.222,131.722 322.5,129.5C 322.167,128.833 321.833,128.167 321.5,127.5C 332.038,107.757 342.038,87.7568 351.5,67.5C 354.219,66.087 357.219,65.4203 360.5,65.5 Z"/></g>
<g><path style="opacity:1" fill="#e87f6c" d="M 330.5,73.5 C 321.317,87.4428 312.651,102.443 304.5,118.5C 306.896,121.225 306.896,124.059 304.5,127C 305.847,131.028 306.181,135.028 305.5,139C 315.653,172.668 313.153,205.835 298,238.5C 280.15,275.708 256.317,308.542 226.5,337C 203.535,355.877 177.202,365.877 147.5,367C 144.032,368.97 140.699,371.136 137.5,373.5C 136.5,371.833 135.167,370.5 133.5,369.5C 119.08,379.086 105.08,389.253 91.5,400C 81.664,406.086 71.664,411.919 61.5,417.5C 60.8313,419.631 60.1646,421.631 59.5,423.5C 70.8547,299.586 126.188,200.752 225.5,127C 257.681,103.908 292.681,86.075 330.5,73.5 Z"/></g>
<g><path style="opacity:1" fill="#eb8573" d="M 256.5,121.5 C 259.187,121.336 261.854,121.503 264.5,122C 264.966,123.299 264.966,124.799 264.5,126.5C 268.882,127.26 273.216,127.426 277.5,127C 278.167,128.333 278.833,129.667 279.5,131C 281.833,131.333 284.167,131.667 286.5,132C 287.337,133.011 287.67,134.178 287.5,135.5C 290.462,135.117 291.462,136.117 290.5,138.5C 291.325,139.386 292.325,139.719 293.5,139.5C 299.457,149.157 303.79,159.657 306.5,171C 307.888,187.279 306.055,203.779 301,220.5C 285.092,261.39 261.592,297.223 230.5,328C 218.536,339.147 204.87,347.481 189.5,353C 184.22,354.487 178.886,355.654 173.5,356.5C 168.742,356.409 163.909,356.409 159,356.5C 154.736,354.642 150.402,353.975 146,354.5C 144.388,351.763 142.222,350.93 139.5,352C 138.87,350.108 137.87,348.441 136.5,347C 135.551,346.383 134.718,346.549 134,347.5C 131.73,346.273 129.897,344.606 128.5,342.5C 125.001,345.247 122.834,344.247 122,339.5C 117.513,328.242 115.513,316.576 116,304.5C 117.11,302.963 118.61,302.297 120.5,302.5C 119.749,294.415 121.582,287.081 126,280.5C 128.335,272.155 130.668,263.822 133,255.5C 142.914,237.332 153.581,219.665 165,202.5C 165.36,200.392 166.027,198.392 167,196.5C 175.612,183.555 184.612,170.889 194,158.5C 203.822,150.676 213.322,142.509 222.5,134C 227.586,133.455 232.252,131.788 236.5,129C 235.833,128.667 235.167,128.333 234.5,128C 235.984,126.426 237.651,125.093 239.5,124C 245.384,123.685 251.051,122.851 256.5,121.5 Z"/></g>
<g><path style="opacity:1" fill="#ec8b7a" d="M 248.5,140.5 C 269.859,137.165 286.026,144.499 297,162.5C 303.648,180.127 303.981,197.794 298,215.5C 281.349,262.325 254.182,301.825 216.5,334C 202.142,344.901 186.142,349.901 168.5,349C 164.123,347.989 159.79,346.822 155.5,345.5C 151.27,343.463 147.437,340.796 144,337.5C 142.071,332.628 139.405,328.295 136,324.5C 132.255,300.707 135.255,277.707 145,255.5C 158.969,226.218 175.969,198.884 196,173.5C 204.825,166.34 213.325,158.84 221.5,151C 230.055,145.988 239.055,142.488 248.5,140.5 Z"/></g>
<g><path style="opacity:1" fill="#ed9281" d="M 257.5,152.5 C 266.674,152.316 275.007,154.983 282.5,160.5C 283.386,161.325 283.719,162.325 283.5,163.5C 286.385,164.545 288.552,166.545 290,169.5C 291.284,172.807 292.617,176.141 294,179.5C 296.117,192.126 295.117,205.126 291,218.5C 275.037,257.803 251.871,292.303 221.5,322C 211.799,330.45 200.799,336.45 188.5,340C 178.767,342.058 169.434,340.725 160.5,336C 153.371,330.912 148.871,324.079 147,315.5C 144.5,300.994 145.167,286.66 149,272.5C 163.775,233.085 185.941,198.585 215.5,169C 227.83,159.06 241.83,153.56 257.5,152.5 Z"/></g>
<g><path style="opacity:1" fill="#ee9786" d="M 253.5,161.5 C 259.545,161.428 265.545,161.928 271.5,163C 274.948,166.439 278.948,169.106 283.5,171C 285.617,172.731 287.117,174.898 288,177.5C 291.224,187.042 291.891,196.708 290,206.5C 285.877,223.867 279.211,240.2 270,255.5C 254.409,282.657 234.576,306.324 210.5,326.5C 200.171,333.332 188.837,336.165 176.5,335C 161.182,328.669 153.349,317.169 153,300.5C 151.88,289.702 153.546,279.036 158,268.5C 168.516,245.802 180.849,224.136 195,203.5C 201.707,196.462 208.04,189.128 214,181.5C 224.768,169.867 237.934,163.2 253.5,161.5 Z"/></g>
<g><path style="opacity:1" fill="#f09c8c" d="M 251.5,167.5 C 275.513,166.775 286.846,178.275 285.5,202C 284.011,211.122 281.511,219.956 278,228.5C 262.15,264.089 239.65,294.589 210.5,320C 202.994,324.727 194.828,327.893 186,329.5C 176.872,329.037 169.539,325.37 164,318.5C 157.253,305.145 156.253,291.478 161,277.5C 173.631,241.391 193.464,209.891 220.5,183C 229.575,175.129 239.908,169.963 251.5,167.5 Z"/></g>
<g><path style="opacity:1" fill="#f1a293" d="M 249.5,175.5 C 255.722,175.429 262.055,176.262 268.5,178C 274.232,183.53 277.899,190.197 279.5,198C 277.961,214.981 272.794,230.814 264,245.5C 250.554,270.277 233.387,292.11 212.5,311C 206.414,315.041 200.081,318.541 193.5,321.5C 187.005,322.192 180.671,321.026 174.5,318C 166.623,309.002 163.79,298.502 166,286.5C 176.215,252.389 193.382,222.389 217.5,196.5C 226.624,187.023 237.291,180.023 249.5,175.5 Z"/></g>
<g><path style="opacity:1" fill="#d33a29" d="M 778.5,301.5 C 777.432,302.434 776.099,302.768 774.5,302.5C 746.102,304.906 717.769,307.906 689.5,311.5C 708.382,291.686 716.216,268.019 713,240.5C 710.508,220.535 705.841,201.202 699,182.5C 728.182,209.839 750.182,242.173 765,279.5C 769.42,287.563 773.92,294.897 778.5,301.5 Z"/></g>
<g><path style="opacity:1" fill="#f1a697" d="M 247.5,185.5 C 252.523,184.991 257.523,185.657 262.5,187.5C 265.581,189.415 267.747,192.082 269,195.5C 270.145,200.799 270.478,206.132 270,211.5C 268.122,219.802 265.455,227.802 262,235.5C 249.535,259.281 234.035,280.781 215.5,300C 212.872,301.626 210.539,303.626 208.5,306C 202.69,309.159 196.524,311.326 190,312.5C 185.011,312.509 181.011,310.509 178,306.5C 173.453,297.259 172.786,287.593 176,277.5C 185.009,255.81 196.342,235.477 210,216.5C 217.167,208.667 224.667,201.167 232.5,194C 237.041,190.121 242.041,187.287 247.5,185.5 Z"/></g>
<g><path style="opacity:1" fill="#f2ac9d" d="M 255.5,193.5 C 257.875,194.878 259.541,196.878 260.5,199.5C 261.733,203.265 262.733,207.099 263.5,211C 261.798,216.44 260.298,221.94 259,227.5C 253.994,238.182 248.494,248.515 242.5,258.5C 235.859,267.642 229.025,276.642 222,285.5C 215.697,292.135 208.697,297.802 201,302.5C 199.951,301.483 198.784,301.316 197.5,302C 196.646,303.022 195.646,303.855 194.5,304.5C 191.826,303.483 189.16,303.316 186.5,304C 180.795,295.358 179.962,286.191 184,276.5C 190.818,262.212 197.484,248.212 204,234.5C 206.248,231.672 208.248,228.672 210,225.5C 217.554,219.279 224.388,212.446 230.5,205C 234.898,201.606 239.565,198.606 244.5,196C 248.28,195.082 251.946,194.249 255.5,193.5 Z"/></g>
<g><path style="opacity:1" fill="#373e3d" d="M 605.5,316.5 C 598.203,311.84 591.203,306.673 584.5,301C 534.612,269.718 482.279,265.051 427.5,287C 389.473,304.694 360.973,332.194 342,369.5C 339.099,380.25 336.099,391.25 333,402.5C 332.654,404.848 331.487,406.681 329.5,408C 317.836,413.332 305.836,417.665 293.5,421C 283.622,425.947 273.622,430.281 263.5,434C 265.377,431.749 266.877,429.249 268,426.5C 274.481,420.596 281.148,414.929 288,409.5C 288.465,408.069 289.299,406.903 290.5,406C 289.906,405.536 289.239,405.369 288.5,405.5C 300.086,400.13 311.919,395.13 324,390.5C 337.791,326.746 375.624,284.58 437.5,264C 493.212,249.872 543.212,260.872 587.5,297C 594.074,303.07 600.074,309.57 605.5,316.5 Z"/></g>
<g><path style="opacity:1" fill="#3a4240" d="M 605.5,316.5 C 607.833,319.167 610.167,321.833 612.5,324.5C 616.533,330.533 621.533,335.533 627.5,339.5C 695.343,327.645 763.676,320.311 832.5,317.5C 833.404,318.209 833.737,319.209 833.5,320.5C 764.532,323.35 696.032,330.683 628,342.5C 626.112,342.204 624.278,341.704 622.5,341C 578.63,287.706 522.63,267.706 454.5,281C 399.48,296.688 361.647,331.188 341,384.5C 338.689,391.746 336.689,399.079 335,406.5C 334.535,407.931 333.701,409.097 332.5,410C 241.802,445.424 156.635,490.59 77,545.5C 75.6815,548.406 75.3482,551.406 76,554.5C 82.512,576.703 89.8453,598.703 98,620.5C 98.9862,619.829 100.153,619.829 101.5,620.5C 100.22,621.931 98.5529,622.598 96.5,622.5C 83.1961,593.088 73.1961,562.588 66.5,531C 66.6483,529.744 66.9816,528.577 67.5,527.5C 129.672,486.896 194.339,450.062 261.5,417C 270.32,412.674 279.32,408.84 288.5,405.5C 289.239,405.369 289.906,405.536 290.5,406C 289.299,406.903 288.465,408.069 288,409.5C 281.148,414.929 274.481,420.596 268,426.5C 266.877,429.249 265.377,431.749 263.5,434C 273.622,430.281 283.622,425.947 293.5,421C 305.836,417.665 317.836,413.332 329.5,408C 331.487,406.681 332.654,404.848 333,402.5C 336.099,391.25 339.099,380.25 342,369.5C 360.973,332.194 389.473,304.694 427.5,287C 482.279,265.051 534.612,269.718 584.5,301C 591.203,306.673 598.203,311.84 605.5,316.5 Z"/></g>
<g><path style="opacity:1" fill="#3f4745" d="M 833.5,320.5 C 834.537,321.93 835.204,323.597 835.5,325.5C 804.597,325.347 773.597,327.181 742.5,331C 704.071,335.466 665.738,340.633 627.5,346.5C 624.567,346.534 621.9,345.701 619.5,344C 578.457,293.087 525.457,273.087 460.5,284C 393.973,301.195 353.14,343.361 338,410.5C 337.167,411.333 336.333,412.167 335.5,413C 246.968,448.426 163.301,492.426 84.5,545C 80.7235,547.955 79.5568,551.788 81,556.5C 87.1044,577.944 94.2711,598.944 102.5,619.5C 102.5,620.167 102.167,620.5 101.5,620.5C 100.153,619.829 98.9862,619.829 98,620.5C 89.8453,598.703 82.512,576.703 76,554.5C 75.3482,551.406 75.6815,548.406 77,545.5C 156.635,490.59 241.802,445.424 332.5,410C 333.701,409.097 334.535,407.931 335,406.5C 336.689,399.079 338.689,391.746 341,384.5C 361.647,331.188 399.48,296.688 454.5,281C 522.63,267.706 578.63,287.706 622.5,341C 624.278,341.704 626.112,342.204 628,342.5C 696.032,330.683 764.532,323.35 833.5,320.5 Z"/></g>
<g><path style="opacity:1" fill="#424b49" d="M 835.5,325.5 C 841.713,342.351 846.046,359.684 848.5,377.5C 846.833,377.5 845.167,377.5 843.5,377.5C 794.737,375.65 746.404,379.483 698.5,389C 679.357,392.262 660.357,396.095 641.5,400.5C 646.286,466.756 621.286,518.256 566.5,555C 521.94,580.445 475.274,585.112 426.5,569C 388.293,554.128 359.459,528.628 340,492.5C 339.439,491.978 338.772,491.645 338,491.5C 284.995,512.919 234.162,538.419 185.5,568C 157.47,584.677 129.803,601.843 102.5,619.5C 94.2711,598.944 87.1044,577.944 81,556.5C 79.5568,551.788 80.7235,547.955 84.5,545C 163.301,492.426 246.968,448.426 335.5,413C 336.333,412.167 337.167,411.333 338,410.5C 353.14,343.361 393.973,301.195 460.5,284C 525.457,273.087 578.457,293.087 619.5,344C 621.9,345.701 624.567,346.534 627.5,346.5C 665.738,340.633 704.071,335.466 742.5,331C 773.597,327.181 804.597,325.347 835.5,325.5 Z"/></g>
<g><path style="opacity:1" fill="#190e0b" d="M 689.5,311.5 C 717.769,307.906 746.102,304.906 774.5,302.5C 774.167,303.167 773.833,303.833 773.5,304.5C 719.526,308.788 665.86,315.455 612.5,324.5C 610.167,321.833 607.833,319.167 605.5,316.5C 600.074,309.57 594.074,303.07 587.5,297C 543.212,260.872 493.212,249.872 437.5,264C 375.624,284.58 337.791,326.746 324,390.5C 311.919,395.13 300.086,400.13 288.5,405.5C 279.32,408.84 270.32,412.674 261.5,417C 194.339,450.062 129.672,486.896 67.5,527.5C 67.1667,527.5 66.8333,527.5 66.5,527.5C 103.996,502.58 142.329,478.913 181.5,456.5C 198.841,447.163 216.174,437.83 233.5,428.5C 251.812,420.012 270.145,411.512 288.5,403C 299.554,397.968 310.888,393.802 322.5,390.5C 327.032,364.775 337.032,341.442 352.5,320.5C 378.106,288.351 411.106,267.851 451.5,259C 517.394,249.398 571.061,270.398 612.5,322C 638.144,318.36 663.81,314.86 689.5,311.5 Z"/></g>
<g><path style="opacity:1" fill="#451510" d="M 825.5,299.5 C 826.043,299.56 826.376,299.893 826.5,300.5C 815.52,301.499 804.52,301.832 793.5,301.5C 804.167,300.833 814.833,300.167 825.5,299.5 Z"/></g>
<g><path style="opacity:1" fill="#363d3c" d="M 832.5,317.5 C 763.676,320.311 695.343,327.645 627.5,339.5C 621.533,335.533 616.533,330.533 612.5,324.5C 665.86,315.455 719.526,308.788 773.5,304.5C 791.46,302.474 809.46,302.141 827.5,303.5C 829.568,308.038 831.235,312.705 832.5,317.5 Z"/></g>
<g><path style="opacity:1" fill="#fcfcfc" d="M 585.5,445.5 C 584.566,446.568 584.232,447.901 584.5,449.5C 569.358,489.269 540.691,512.769 498.5,520C 455.459,523.228 421.959,507.061 398,471.5C 375.898,431.755 377.564,393.089 403,355.5C 439.113,313.724 482.613,303.89 533.5,326C 574.299,350.095 592.466,385.929 588,433.5C 587.057,437.496 586.224,441.496 585.5,445.5 Z"/></g>
<g><path style="opacity:1" fill="#181919" d="M 585.5,445.5 C 586.224,441.496 587.057,437.496 588,433.5C 592.466,385.929 574.299,350.095 533.5,326C 482.613,303.89 439.113,313.724 403,355.5C 377.564,393.089 375.898,431.755 398,471.5C 421.959,507.061 455.459,523.228 498.5,520C 540.691,512.769 569.358,489.269 584.5,449.5C 585.097,449.735 585.43,450.235 585.5,451C 571.452,488.699 544.786,512.033 505.5,521C 462.056,527.189 426.889,513.023 400,478.5C 372.248,433.789 374.248,390.456 406,348.5C 444.382,309.968 488.215,302.468 537.5,326C 582.675,355.204 598.842,396.037 586,448.5C 585.517,447.552 585.351,446.552 585.5,445.5 Z"/></g>
<g><path style="opacity:1" fill="#e87967" d="M 351.5,67.5 C 342.038,87.7568 332.038,107.757 321.5,127.5C 321.833,128.167 322.167,128.833 322.5,129.5C 321.222,131.722 320.222,134.056 319.5,136.5C 320.799,139.434 320.132,141.934 317.5,144C 320.803,171.305 317.97,198.471 309,225.5C 291.312,268.484 265.812,305.984 232.5,338C 211.451,357.781 186.784,370.114 158.5,375C 155.685,379.503 151.685,381.837 146.5,382C 119.718,403.231 91.3847,422.231 61.5,439C 60.8095,440.067 60.3095,441.234 60,442.5C 59.7679,441.263 59.2679,440.263 58.5,439.5C 58.1786,433.974 58.5119,428.64 59.5,423.5C 60.1646,421.631 60.8313,419.631 61.5,417.5C 71.664,411.919 81.664,406.086 91.5,400C 105.08,389.253 119.08,379.086 133.5,369.5C 135.167,370.5 136.5,371.833 137.5,373.5C 140.699,371.136 144.032,368.97 147.5,367C 177.202,365.877 203.535,355.877 226.5,337C 256.317,308.542 280.15,275.708 298,238.5C 313.153,205.835 315.653,172.668 305.5,139C 306.181,135.028 305.847,131.028 304.5,127C 306.896,124.059 306.896,121.225 304.5,118.5C 312.651,102.443 321.317,87.4428 330.5,73.5C 337.356,71.0356 344.356,69.0356 351.5,67.5 Z"/></g>
<g><path style="opacity:1" fill="#555d5b" d="M 476.5,347.5 C 512.756,345.307 538.256,360.64 553,393.5C 562.691,428.741 552.524,456.574 522.5,477C 487.912,493.642 457.746,487.808 432,459.5C 413.454,432.246 412.787,404.579 430,376.5C 441.88,360.821 457.38,351.154 476.5,347.5 Z"/></g>
<g><path style="opacity:1" fill="#fefefe" d="M 474.5,482.5 C 471.164,480.269 467.497,478.603 463.5,477.5C 457.735,473.583 452.068,469.416 446.5,465C 435.843,454.655 429.009,442.155 426,427.5C 424.549,415.198 424.215,402.865 425,390.5C 444.263,354.628 473.429,342.794 512.5,355C 546.722,371.949 559.556,399.115 551,436.5C 537.522,471.661 512.022,486.995 474.5,482.5 Z"/></g>
<g><path style="opacity:1" fill="#b8b8b8" d="M 782.5,380.5 C 787.305,379.513 792.305,379.179 797.5,379.5C 800.833,379.5 804.167,379.5 807.5,379.5C 805.369,380.314 803.036,380.814 800.5,381C 803.997,388.492 806.497,396.325 808,404.5C 811.171,422.368 813.171,440.368 814,458.5C 814.759,473.792 815.259,488.625 815.5,503C 814.628,525.99 809.128,547.823 799,568.5C 781.597,601.65 762.93,633.984 743,665.5C 712.008,707.76 672.842,740.26 625.5,763C 521.762,811.662 417.762,811.662 313.5,763C 265.679,739.514 223.179,708.68 186,670.5C 180.424,663.68 175.091,656.68 170,649.5C 165.234,641.207 161.234,632.54 158,623.5C 156.772,617.16 155.939,610.994 155.5,605C 156.142,598.662 157.475,592.496 159.5,586.5C 165.989,581.418 172.989,577.085 180.5,573.5C 179.653,576.643 177.82,579.643 175,582.5C 165.762,599.461 165.095,616.794 173,634.5C 183.686,654.88 197.853,672.713 215.5,688C 260.984,727.728 312.651,757.061 370.5,776C 477.409,805.963 577.076,789.629 669.5,727C 696.374,707.127 719.54,683.627 739,656.5C 761.472,621.989 781.472,585.989 799,548.5C 805.553,528.531 808.386,508.031 807.5,487C 807.38,460.641 804.88,434.808 800,409.5C 797.754,399.417 793.588,390.25 787.5,382C 788.5,381.667 789.5,381.333 790.5,381C 787.854,380.503 785.187,380.336 782.5,380.5 Z"/></g>
<g><path style="opacity:1" fill="#b1b1b1" d="M 807.5,379.5 C 815.061,378.694 818.728,379.028 818.5,380.5C 820.085,394.944 821.751,409.11 823.5,423C 822.919,423.893 822.585,424.893 822.5,426C 823.701,441.063 825.035,456.063 826.5,471C 826.114,482.35 826.114,493.684 826.5,505C 825.972,525.656 821.805,545.823 814,565.5C 794.746,601.684 774.746,637.35 754,672.5C 731.045,705.455 702.545,732.621 668.5,754C 531.031,834.642 394.697,832.642 259.5,748C 234.723,731.936 211.389,713.936 189.5,694C 174.052,679.23 160.886,662.73 150,644.5C 142.316,631.25 138.316,617.25 138,602.5C 137.283,601.956 136.783,601.289 136.5,600.5C 143.659,595.083 151.325,590.417 159.5,586.5C 157.475,592.496 156.142,598.662 155.5,605C 155.939,610.994 156.772,617.16 158,623.5C 161.234,632.54 165.234,641.207 170,649.5C 175.091,656.68 180.424,663.68 186,670.5C 223.179,708.68 265.679,739.514 313.5,763C 417.762,811.662 521.762,811.662 625.5,763C 672.842,740.26 712.008,707.76 743,665.5C 762.93,633.984 781.597,601.65 799,568.5C 809.128,547.823 814.628,525.99 815.5,503C 815.259,488.625 814.759,473.792 814,458.5C 813.171,440.368 811.171,422.368 808,404.5C 806.497,396.325 803.997,388.492 800.5,381C 803.036,380.814 805.369,380.314 807.5,379.5 Z"/></g>
<g><path style="opacity:1" fill="#ababab" d="M 797.5,379.5 C 811.657,378.504 825.99,378.171 840.5,378.5C 840.5,378.833 840.5,379.167 840.5,379.5C 839.732,395.548 839.398,411.715 839.5,428C 840.828,433.313 841.828,438.646 842.5,444C 842.335,445.117 842.002,446.284 841.5,447.5C 842.152,455.364 842.818,463.197 843.5,471C 843.154,489.099 843.154,507.599 843.5,526.5C 842.926,528.059 842.26,529.559 841.5,531C 840.964,547.877 836.464,564.043 828,579.5C 814.734,597.112 804.734,616.112 798,636.5C 788.069,652.747 778.569,669.414 769.5,686.5C 770.326,687.451 770.492,688.451 770,689.5C 757.157,703.344 744.657,717.511 732.5,732C 722.833,739.167 713.167,746.333 703.5,753.5C 698.488,758.51 693.155,763.177 687.5,767.5C 668.385,776.89 649.718,787.057 631.5,798C 617.233,803.533 602.9,808.867 588.5,814C 567.751,818.811 547.251,824.311 527,830.5C 521.863,830.523 516.697,830.523 511.5,830.5C 497.724,832.077 484.224,833.743 471,835.5C 454.124,832.884 436.958,831.217 419.5,830.5C 418.914,830.709 418.414,831.043 418,831.5C 405.773,828.761 393.607,825.595 381.5,822C 362.293,820.153 344.293,814.486 327.5,805C 319.49,802.327 311.49,799.66 303.5,797C 292.237,790.731 281.237,784.064 270.5,777C 262.081,773.193 253.747,769.193 245.5,765C 230.895,751.392 214.895,739.725 197.5,730C 184.108,715.275 169.441,701.941 153.5,690C 151.281,688.111 150.447,685.944 151,683.5C 146.167,677.333 141.333,671.167 136.5,665C 136.833,664.667 137.167,664.333 137.5,664C 130.72,655.884 124.72,647.218 119.5,638C 119.833,637.667 120.167,637.333 120.5,637C 118.837,633.382 117.17,629.715 115.5,626C 115.833,625.667 116.167,625.333 116.5,625C 114.777,622.057 113.777,618.89 113.5,615.5C 120.646,609.756 128.313,604.756 136.5,600.5C 136.783,601.289 137.283,601.956 138,602.5C 138.316,617.25 142.316,631.25 150,644.5C 160.886,662.73 174.052,679.23 189.5,694C 211.389,713.936 234.723,731.936 259.5,748C 394.697,832.642 531.031,834.642 668.5,754C 702.545,732.621 731.045,705.455 754,672.5C 774.746,637.35 794.746,601.684 814,565.5C 821.805,545.823 825.972,525.656 826.5,505C 826.114,493.684 826.114,482.35 826.5,471C 825.035,456.063 823.701,441.063 822.5,426C 822.585,424.893 822.919,423.893 823.5,423C 821.751,409.11 820.085,394.944 818.5,380.5C 818.728,379.028 815.061,378.694 807.5,379.5C 804.167,379.5 800.833,379.5 797.5,379.5 Z"/></g>
<g><path style="opacity:1" fill="#a5a5a5" d="M 840.5,379.5 C 843.777,379.216 846.943,379.549 850,380.5C 850.828,384.466 851.328,388.466 851.5,392.5C 851.444,397.731 852.111,402.731 853.5,407.5C 864.701,525.157 831.868,628.49 755,717.5C 667.706,810.844 559.872,855.011 431.5,850C 308.929,839.314 210.429,785.481 136,688.5C 121.188,668.547 108.688,647.213 98.5,624.5C 103.255,621.075 108.255,618.075 113.5,615.5C 113.777,618.89 114.777,622.057 116.5,625C 116.167,625.333 115.833,625.667 115.5,626C 117.17,629.715 118.837,633.382 120.5,637C 120.167,637.333 119.833,637.667 119.5,638C 124.72,647.218 130.72,655.884 137.5,664C 137.167,664.333 136.833,664.667 136.5,665C 141.333,671.167 146.167,677.333 151,683.5C 150.447,685.944 151.281,688.111 153.5,690C 169.441,701.941 184.108,715.275 197.5,730C 214.895,739.725 230.895,751.392 245.5,765C 253.747,769.193 262.081,773.193 270.5,777C 281.237,784.064 292.237,790.731 303.5,797C 311.49,799.66 319.49,802.327 327.5,805C 344.293,814.486 362.293,820.153 381.5,822C 393.607,825.595 405.773,828.761 418,831.5C 418.414,831.043 418.914,830.709 419.5,830.5C 436.958,831.217 454.124,832.884 471,835.5C 484.224,833.743 497.724,832.077 511.5,830.5C 516.697,830.523 521.863,830.523 527,830.5C 547.251,824.311 567.751,818.811 588.5,814C 602.9,808.867 617.233,803.533 631.5,798C 649.718,787.057 668.385,776.89 687.5,767.5C 693.155,763.177 698.488,758.51 703.5,753.5C 713.167,746.333 722.833,739.167 732.5,732C 744.657,717.511 757.157,703.344 770,689.5C 770.492,688.451 770.326,687.451 769.5,686.5C 778.569,669.414 788.069,652.747 798,636.5C 804.734,616.112 814.734,597.112 828,579.5C 836.464,564.043 840.964,547.877 841.5,531C 842.26,529.559 842.926,528.059 843.5,526.5C 843.154,507.599 843.154,489.099 843.5,471C 842.818,463.197 842.152,455.364 841.5,447.5C 842.002,446.284 842.335,445.117 842.5,444C 841.828,438.646 840.828,433.313 839.5,428C 839.398,411.715 839.732,395.548 840.5,379.5 Z"/></g>
<g><path style="opacity:1" fill="#bebebe" d="M 767.5,381.5 C 772.305,380.513 777.305,380.179 782.5,380.5C 785.187,380.336 787.854,380.503 790.5,381C 789.5,381.333 788.5,381.667 787.5,382C 793.588,390.25 797.754,399.417 800,409.5C 804.88,434.808 807.38,460.641 807.5,487C 808.386,508.031 805.553,528.531 799,548.5C 781.472,585.989 761.472,621.989 739,656.5C 719.54,683.627 696.374,707.127 669.5,727C 577.076,789.629 477.409,805.963 370.5,776C 312.651,757.061 260.984,727.728 215.5,688C 197.853,672.713 183.686,654.88 173,634.5C 165.095,616.794 165.762,599.461 175,582.5C 177.82,579.643 179.653,576.643 180.5,573.5C 190.334,566.746 200.667,560.746 211.5,555.5C 210.402,556.397 210.402,557.23 211.5,558C 198.836,566.992 188.67,578.159 181,591.5C 174.746,610.247 177.079,627.913 188,644.5C 201.716,663.885 217.882,681.052 236.5,696C 279.577,729.988 327.577,754.988 380.5,771C 480.412,796.545 573.412,781.212 659.5,725C 697.023,698.479 727.19,665.312 750,625.5C 764.98,601.206 778.647,576.206 791,550.5C 801.246,519.959 804.079,489.293 799.5,458.5C 799.49,438.847 795.656,419.513 788,400.5C 781.732,389.492 774.899,383.159 767.5,381.5 Z"/></g>
<g><path style="opacity:1" fill="#c3c3c3" d="M 767.5,381.5 C 774.899,383.159 781.732,389.492 788,400.5C 795.656,419.513 799.49,438.847 799.5,458.5C 804.079,489.293 801.246,519.959 791,550.5C 778.647,576.206 764.98,601.206 750,625.5C 727.19,665.312 697.023,698.479 659.5,725C 573.412,781.212 480.412,796.545 380.5,771C 327.577,754.988 279.577,729.988 236.5,696C 217.882,681.052 201.716,663.885 188,644.5C 177.079,627.913 174.746,610.247 181,591.5C 188.67,578.159 198.836,566.992 211.5,558C 210.402,557.23 210.402,556.397 211.5,555.5C 232.859,542.818 254.859,531.152 277.5,520.5C 278.598,521.397 278.598,522.23 277.5,523C 254.175,537.331 231.509,552.665 209.5,569C 199.984,577.174 192.817,587.007 188,598.5C 184.994,611.119 186.327,623.453 192,635.5C 203.222,655.062 217.722,671.896 235.5,686C 281.688,724.265 334.021,751.265 392.5,767C 489.311,788.37 578.644,771.37 660.5,716C 686.707,696.793 709.207,673.959 728,647.5C 749.799,615.002 769.132,581.002 786,545.5C 793.079,523.587 796.246,501.254 795.5,478.5C 794.71,459.269 792.21,440.269 788,421.5C 781.923,397.917 766.756,385.584 742.5,384.5C 750.6,382.729 758.933,381.729 767.5,381.5 Z"/></g>
<g><path style="opacity:1" fill="#cacaca" d="M 742.5,384.5 C 766.756,385.584 781.923,397.917 788,421.5C 792.21,440.269 794.71,459.269 795.5,478.5C 796.246,501.254 793.079,523.587 786,545.5C 769.132,581.002 749.799,615.002 728,647.5C 709.207,673.959 686.707,696.793 660.5,716C 578.644,771.37 489.311,788.37 392.5,767C 334.021,751.265 281.688,724.265 235.5,686C 217.722,671.896 203.222,655.062 192,635.5C 186.327,623.453 184.994,611.119 188,598.5C 192.817,587.007 199.984,577.174 209.5,569C 231.509,552.665 254.175,537.331 277.5,523C 278.598,522.23 278.598,521.397 277.5,520.5C 296.936,510.453 316.936,501.453 337.5,493.5C 339.337,495.176 340.67,497.176 341.5,499.5C 337.537,498.779 333.537,498.945 329.5,500C 323.888,502.139 318.554,504.806 313.5,508C 287.105,526.059 260.438,543.726 233.5,561C 222.015,568.819 212.181,578.319 204,589.5C 196.64,600.956 194.973,612.956 199,625.5C 205.304,641.805 214.804,655.972 227.5,668C 285.2,720.679 352.866,753.346 430.5,766C 519.82,775.344 599.82,752.677 670.5,698C 690.773,680.727 708.606,661.227 724,639.5C 744.036,609.44 762.036,578.106 778,545.5C 790.901,506.854 791.901,467.854 781,428.5C 773.87,404.914 757.87,393.247 733,393.5C 709.458,393.95 687.625,400.45 667.5,413C 657.095,421.977 649.262,432.81 644,445.5C 643.667,445.167 643.333,444.833 643,444.5C 642.768,445.737 642.268,446.737 641.5,447.5C 644.027,432.282 645.027,416.948 644.5,401.5C 676.844,393.975 709.511,388.308 742.5,384.5 Z"/></g>
<g><path style="opacity:1" fill="#d1d1d1" d="M 341.5,499.5 C 344.069,502.961 346.403,506.628 348.5,510.5C 345.648,511.408 342.815,511.075 340,509.5C 337.682,509.516 335.349,509.516 333,509.5C 329.278,509.895 325.944,511.229 323,513.5C 322.667,513.167 322.333,512.833 322,512.5C 292.573,530.127 263.739,548.627 235.5,568C 229.684,572.982 224.017,578.149 218.5,583.5C 210.746,592.179 206.412,602.346 205.5,614C 207.603,630.708 214.769,645.208 227,657.5C 293.406,721.852 373.072,756.852 466,762.5C 538.979,762.063 604.479,739.896 662.5,696C 680.036,681.464 695.869,665.298 710,647.5C 731.017,618.142 750.017,587.475 767,555.5C 785.826,512.541 787.492,468.874 772,424.5C 765.01,411.519 754.176,404.019 739.5,402C 714.148,399.919 691.148,406.086 670.5,420.5C 666.148,425.018 661.981,429.684 658,434.5C 649.457,449.725 641.457,465.391 634,481.5C 633.23,480.402 632.397,480.402 631.5,481.5C 635.761,470.457 639.095,459.124 641.5,447.5C 642.268,446.737 642.768,445.737 643,444.5C 643.333,444.833 643.667,445.167 644,445.5C 649.262,432.81 657.095,421.977 667.5,413C 687.625,400.45 709.458,393.95 733,393.5C 757.87,393.247 773.87,404.914 781,428.5C 791.901,467.854 790.901,506.854 778,545.5C 762.036,578.106 744.036,609.44 724,639.5C 708.606,661.227 690.773,680.727 670.5,698C 599.82,752.677 519.82,775.344 430.5,766C 352.866,753.346 285.2,720.679 227.5,668C 214.804,655.972 205.304,641.805 199,625.5C 194.973,612.956 196.64,600.956 204,589.5C 212.181,578.319 222.015,568.819 233.5,561C 260.438,543.726 287.105,526.059 313.5,508C 318.554,504.806 323.888,502.139 329.5,500C 333.537,498.945 337.537,498.779 341.5,499.5 Z"/></g>
<g><path style="opacity:1" fill="#6d6d6d" d="M 851.5,392.5 C 852.889,397.269 853.556,402.269 853.5,407.5C 852.111,402.731 851.444,397.731 851.5,392.5 Z"/></g>
<g><path style="opacity:1" fill="#d6d6d6" d="M 348.5,510.5 C 353.542,516.208 358.209,522.208 362.5,528.5C 361.883,528.611 361.383,528.944 361,529.5C 347.101,519.394 332.268,517.894 316.5,525C 293.304,538.207 270.637,552.207 248.5,567C 241.682,572.154 235.182,577.654 229,583.5C 221.27,591.293 216.436,600.626 214.5,611.5C 214.621,622.024 217.455,631.691 223,640.5C 233.875,655.532 246.708,668.699 261.5,680C 300.691,709.596 344.024,731.262 391.5,745C 484.976,767.705 571.31,751.705 650.5,697C 681.875,672.056 708.042,642.556 729,608.5C 740.28,589.599 751.28,570.599 762,551.5C 777.801,516.268 780.801,479.935 771,442.5C 768.245,432.483 763.079,423.983 755.5,417C 747.964,411.877 739.631,409.043 730.5,408.5C 709.245,408.722 690.245,415.222 673.5,428C 670,432.167 666.5,436.333 663,440.5C 652.143,459.547 641.81,478.881 632,498.5C 595.822,558.846 542.322,587.012 471.5,583C 464.759,582.466 458.093,581.466 451.5,580C 452.737,579.768 453.737,579.268 454.5,578.5C 514.127,586.35 564.294,568.35 605,524.5C 615.863,511.445 624.697,497.111 631.5,481.5C 632.397,480.402 633.23,480.402 634,481.5C 641.457,465.391 649.457,449.725 658,434.5C 661.981,429.684 666.148,425.018 670.5,420.5C 691.148,406.086 714.148,399.919 739.5,402C 754.176,404.019 765.01,411.519 772,424.5C 787.492,468.874 785.826,512.541 767,555.5C 750.017,587.475 731.017,618.142 710,647.5C 695.869,665.298 680.036,681.464 662.5,696C 604.479,739.896 538.979,762.063 466,762.5C 373.072,756.852 293.406,721.852 227,657.5C 214.769,645.208 207.603,630.708 205.5,614C 206.412,602.346 210.746,592.179 218.5,583.5C 224.017,578.149 229.684,572.982 235.5,568C 263.739,548.627 292.573,530.127 322,512.5C 322.333,512.833 322.667,513.167 323,513.5C 325.944,511.229 329.278,509.895 333,509.5C 335.349,509.516 337.682,509.516 340,509.5C 342.815,511.075 345.648,511.408 348.5,510.5 Z"/></g>
<g><path style="opacity:1" fill="#dddddd" d="M 362.5,528.5 C 387.976,554.574 418.643,571.24 454.5,578.5C 453.737,579.268 452.737,579.768 451.5,580C 458.093,581.466 464.759,582.466 471.5,583C 542.322,587.012 595.822,558.846 632,498.5C 641.81,478.881 652.143,459.547 663,440.5C 666.5,436.333 670,432.167 673.5,428C 690.245,415.222 709.245,408.722 730.5,408.5C 739.631,409.043 747.964,411.877 755.5,417C 763.079,423.983 768.245,432.483 771,442.5C 780.801,479.935 777.801,516.268 762,551.5C 751.28,570.599 740.28,589.599 729,608.5C 708.042,642.556 681.875,672.056 650.5,697C 571.31,751.705 484.976,767.705 391.5,745C 344.024,731.262 300.691,709.596 261.5,680C 246.708,668.699 233.875,655.532 223,640.5C 217.455,631.691 214.621,622.024 214.5,611.5C 216.436,600.626 221.27,591.293 229,583.5C 235.182,577.654 241.682,572.154 248.5,567C 270.637,552.207 293.304,538.207 316.5,525C 332.268,517.894 347.101,519.394 361,529.5C 361.383,528.944 361.883,528.611 362.5,528.5 Z"/></g>
<g><path style="opacity:1" fill="#e6e7e7" d="M 463.5,477.5 C 463.833,478.167 464.167,478.833 464.5,479.5C 440.106,470.089 425.606,452.423 421,426.5C 420.124,417.77 420.458,409.104 422,400.5C 420.052,427.679 428.886,450.512 448.5,469C 452.905,472.87 457.905,475.703 463.5,477.5 Z"/></g>
<g><path style="opacity:1" fill="#e3e3e3" d="M 715.5,417.5 C 741.759,414.34 758.592,425.34 766,450.5C 774.936,489.591 769.269,526.925 749,562.5C 734.212,588.442 718.046,613.442 700.5,637.5C 649.057,701.572 582.057,738.072 499.5,747C 446.404,751.51 395.404,743.177 346.5,722C 312.319,706.809 280.986,687.142 252.5,663C 241.701,653.54 233.201,642.374 227,629.5C 223.109,617.743 224.109,606.409 230,595.5C 240.593,583.572 252.426,573.072 265.5,564C 280.966,554.173 296.633,544.839 312.5,536C 318.972,533.677 325.472,531.51 332,529.5C 339.786,529.988 347.286,531.821 354.5,535C 370.34,545.419 386.007,556.086 401.5,567C 465.316,600.496 527.65,597.496 588.5,558C 609.226,542.272 626.06,523.106 639,500.5C 648.542,481.084 658.875,462.084 670,443.5C 681.853,428.992 697.019,420.325 715.5,417.5 Z"/></g>
<g><path style="opacity:1" fill="#eaeaea" d="M 716.5,428.5 C 721.759,428.969 726.926,428.969 732,428.5C 735.184,430.004 738.351,431.504 741.5,433C 750.268,440.555 756.102,450.055 759,461.5C 764.455,490.75 760.788,518.75 748,545.5C 728.312,583.557 704.645,618.89 677,651.5C 610.246,718.31 529.746,746.81 435.5,737C 367.852,726.576 308.352,699.076 257,654.5C 250.601,647.368 244.935,639.701 240,631.5C 234.711,615.556 237.878,601.556 249.5,589.5C 272.621,568.233 299.121,552.566 329,542.5C 337.243,542.591 345.409,544.091 353.5,547C 371.236,558.397 389.236,569.397 407.5,580C 471.658,608.921 533.324,604.254 592.5,566C 602.471,558.086 611.971,549.586 621,540.5C 641.34,514.512 658.674,486.512 673,456.5C 683.602,440.958 698.102,431.625 716.5,428.5 Z"/></g>
<g><path style="opacity:1" fill="#f0f0f0" d="M 720.5,439.5 C 727.366,440.464 733.699,442.797 739.5,446.5C 745.96,455.211 750.293,464.878 752.5,475.5C 752.392,476.442 752.059,477.275 751.5,478C 753.157,483.437 753.824,488.937 753.5,494.5C 752.236,504.279 750.403,513.946 748,523.5C 745.367,529.349 743.034,535.349 741,541.5C 722.721,574.439 702.054,605.772 679,635.5C 632.721,688.809 574.388,719.476 504,727.5C 498.548,728.62 493.048,729.62 487.5,730.5C 442.761,731.79 399.428,723.957 357.5,707C 329.711,694.829 303.711,679.829 279.5,662C 274.661,656.828 269.494,651.995 264,647.5C 259.797,642.262 255.964,636.762 252.5,631C 252.833,630.667 253.167,630.333 253.5,630C 249.305,622.392 248.805,614.559 252,606.5C 254.043,603.288 255.877,599.955 257.5,596.5C 279.564,573.897 305.564,559.564 335.5,553.5C 341.382,554.22 347.049,555.72 352.5,558C 373.062,570.623 394.396,582.29 416.5,593C 487.323,618.737 552.657,608.403 612.5,562C 625.47,549.701 636.97,536.201 647,521.5C 656.776,505.617 665.776,489.284 674,472.5C 678.923,466.306 683.589,459.973 688,453.5C 697.325,445.228 708.159,440.562 720.5,439.5 Z"/></g>
<g><path style="opacity:1" fill="#f6f6f6" d="M 711.5,457.5 C 720.222,456.51 727.555,459.51 733.5,466.5C 732.167,467.5 732.167,468.5 733.5,469.5C 734.628,470.262 735.795,470.929 737,471.5C 739.943,477.59 740.776,483.923 739.5,490.5C 739.782,493.131 740.449,495.631 741.5,498C 740.087,502.692 739.254,507.526 739,512.5C 735.027,525.141 730.36,537.141 725,548.5C 707.239,576.93 687.906,604.264 667,630.5C 630.275,672.198 584.775,699.364 530.5,712C 515.941,714.78 501.441,716.946 487,718.5C 476.195,717.597 465.528,717.597 455,718.5C 442.647,717.217 430.647,715.217 419,712.5C 418.228,712.645 417.561,712.978 417,713.5C 370.325,702.238 327.825,682.571 289.5,654.5C 281.763,647.426 275.096,639.426 269.5,630.5C 269.709,629.914 270.043,629.414 270.5,629C 267.733,624.183 266.899,619.016 268,613.5C 269.526,607.582 272.193,602.249 276,597.5C 281.63,594.036 286.463,589.702 290.5,584.5C 302.541,577.93 315.208,572.93 328.5,569.5C 335.281,570.108 342.281,570.941 349.5,572C 370.955,583.377 392.622,594.377 414.5,605C 478.321,628.198 539.655,622.198 598.5,587C 621.361,572.139 640.194,553.306 655,530.5C 664.5,515.659 673.167,500.326 681,484.5C 686.438,476.063 692.938,468.563 700.5,462C 704.468,460.962 708.135,459.462 711.5,457.5 Z"/></g>
<g><path style="opacity:1" fill="#8f9493" d="M 463.5,477.5 C 467.497,478.603 471.164,480.269 474.5,482.5C 470.714,482.68 467.381,481.68 464.5,479.5C 464.167,478.833 463.833,478.167 463.5,477.5 Z"/></g>
<g><path style="opacity:1" fill="#fbfbfb" d="M 709.5,490.5 C 710.937,491.722 712.437,491.722 714,490.5C 716.508,492.335 718.675,494.502 720.5,497C 715.891,499.715 715.557,502.715 719.5,506C 719.039,509.229 718.539,512.729 718,516.5C 714.008,521.159 710.842,526.326 708.5,532C 709.765,533.337 710.265,534.837 710,536.5C 704.207,541.966 699.541,548.299 696,555.5C 689.649,561.186 683.983,567.519 679,574.5C 678.178,576.788 677.511,579.122 677,581.5C 675.013,582.218 673.179,583.218 671.5,584.5C 670.572,585.768 670.405,587.101 671,588.5C 671.837,586.993 673.004,586.493 674.5,587C 671.564,593.202 667.231,598.202 661.5,602C 661.833,602.333 662.167,602.667 662.5,603C 660.753,607.748 657.587,611.248 653,613.5C 652.194,616.446 650.861,619.112 649,621.5C 643.986,626.851 639.319,632.518 635,638.5C 633.184,639.329 631.351,640.163 629.5,641C 625.643,647.195 620.309,651.528 613.5,654C 610.683,656.317 608.016,658.817 605.5,661.5C 555.783,693.548 501.283,705.881 442,698.5C 438.861,699.426 435.694,699.592 432.5,699C 417.945,694.955 403.279,691.288 388.5,688C 377.422,682.73 366.089,678.063 354.5,674C 351.282,671.223 347.615,669.223 343.5,668C 340.752,664.388 337.086,662.388 332.5,662C 328.719,657.845 324.052,655.178 318.5,654C 315.833,652.667 313.833,650.667 312.5,648C 310.158,646.829 307.824,645.662 305.5,644.5C 302.071,638.244 298.071,632.411 293.5,627C 295.809,624.516 295.476,622.183 292.5,620C 294.721,618.331 295.055,616.331 293.5,614C 294.799,612.674 296.132,611.34 297.5,610C 296.833,609.333 296.167,608.667 295.5,608C 296.872,606.758 297.872,605.258 298.5,603.5C 302.668,601.671 306.168,599.004 309,595.5C 309.333,595.833 309.667,596.167 310,596.5C 315.312,592.783 321.145,591.45 327.5,592.5C 330.012,591.201 332.679,590.201 335.5,589.5C 339.269,590.687 342.936,592.021 346.5,593.5C 347.442,593.392 348.275,593.059 349,592.5C 350.973,593.64 352.807,594.973 354.5,596.5C 355.167,596.167 355.833,595.833 356.5,595.5C 358.547,597.015 360.881,597.849 363.5,598C 389.608,614.263 417.608,626.263 447.5,634C 495.484,640.496 541.484,633.83 585.5,614C 594.167,609 602.833,604 611.5,599C 622.441,590.373 633.607,582.206 645,574.5C 645.414,574.957 645.914,575.291 646.5,575.5C 652.525,567.975 658.359,560.309 664,552.5C 670.839,548.253 675.839,541.92 679,533.5C 681,530.833 683,528.167 685,525.5C 686.624,520.226 688.291,514.893 690,509.5C 690.908,507.561 692.408,506.561 694.5,506.5C 694.288,500.955 696.288,496.455 700.5,493C 703.678,492.34 706.678,491.507 709.5,490.5 Z"/></g>
<g><path style="opacity:1" fill="#181919" d="M 843.5,377.5 C 842.791,378.404 841.791,378.737 840.5,378.5C 825.99,378.171 811.657,378.504 797.5,379.5C 792.305,379.179 787.305,379.513 782.5,380.5C 777.305,380.179 772.305,380.513 767.5,381.5C 758.933,381.729 750.6,382.729 742.5,384.5C 709.511,388.308 676.844,393.975 644.5,401.5C 645.027,416.948 644.027,432.282 641.5,447.5C 639.095,459.124 635.761,470.457 631.5,481.5C 624.697,497.111 615.863,511.445 605,524.5C 564.294,568.35 514.127,586.35 454.5,578.5C 418.643,571.24 387.976,554.574 362.5,528.5C 358.209,522.208 353.542,516.208 348.5,510.5C 346.403,506.628 344.069,502.961 341.5,499.5C 340.67,497.176 339.337,495.176 337.5,493.5C 316.936,501.453 296.936,510.453 277.5,520.5C 254.859,531.152 232.859,542.818 211.5,555.5C 200.667,560.746 190.334,566.746 180.5,573.5C 172.989,577.085 165.989,581.418 159.5,586.5C 151.325,590.417 143.659,595.083 136.5,600.5C 128.313,604.756 120.646,609.756 113.5,615.5C 108.255,618.075 103.255,621.075 98.5,624.5C 97.8333,623.833 97.1667,623.167 96.5,622.5C 98.5529,622.598 100.22,621.931 101.5,620.5C 102.167,620.5 102.5,620.167 102.5,619.5C 129.803,601.843 157.47,584.677 185.5,568C 234.162,538.419 284.995,512.919 338,491.5C 338.772,491.645 339.439,491.978 340,492.5C 359.459,528.628 388.293,554.128 426.5,569C 475.274,585.112 521.94,580.445 566.5,555C 621.286,518.256 646.286,466.756 641.5,400.5C 660.357,396.095 679.357,392.262 698.5,389C 746.404,379.483 794.737,375.65 843.5,377.5 Z"/></g>
</svg>
